<?xml version="1.0" standalone="no"?>
<!DOCTYPE svg PUBLIC "-//W3C//DTD SVG 20010904//EN"
 "http://www.w3.org/TR/2001/REC-SVG-20010904/DTD/svg10.dtd">
<svg version="1.0" xmlns="http://www.w3.org/2000/svg"
 width="140.000000pt" height="138.000000pt" viewBox="0 0 140.000000 138.000000"
 preserveAspectRatio="xMidYMid meet">

<g transform="translate(0.000000,138.000000) scale(0.100000,-0.100000)"
stroke="none">
<path d="M694 1365 c-4 -11 -18 -47 -30 -79 -29 -73 -29 -80 -3 -118 12 -16
19 -31 16 -34 -3 -3 -26 2 -51 10 -65 22 -120 20 -201 -10 -122 -44 -172 -57
-197 -51 -21 6 -24 11 -20 36 3 22 -1 32 -16 40 -25 13 -49 5 -57 -19 -6 -20
3 -50 16 -50 5 0 9 -13 9 -30 0 -22 -4 -28 -15 -24 -12 5 -15 -3 -15 -42 0
-38 -15 -86 -66 -208 -38 -89 -62 -161 -57 -165 5 -3 12 -14 16 -23 6 -16 22
-18 147 -18 125 0 141 2 147 17 4 10 11 21 16 25 7 4 -2 35 -21 80 -17 40 -47
111 -66 157 -25 58 -36 100 -36 133 0 41 -3 48 -17 46 -10 -2 -19 4 -20 12 -3
13 11 15 84 15 61 0 106 6 148 20 78 26 148 25 200 -3 l40 -21 -142 2 c-104 1
-145 -1 -155 -11 -10 -10 -6 -11 20 -6 19 4 67 -2 123 -16 51 -12 107 -20 125
-17 29 5 34 2 43 -24 18 -51 62 -50 88 2 10 19 19 23 46 21 19 -2 70 6 115 17
44 12 95 21 114 21 l33 0 -25 -13 c-37 -19 -35 -68 3 -81 23 -8 31 -6 49 12
18 18 20 25 11 45 -22 47 -71 59 -204 52 -65 -4 -119 -5 -119 -2 0 11 53 34
93 41 27 5 67 -1 140 -19 76 -20 117 -26 160 -22 51 5 57 3 57 -14 0 -12 -5
-16 -15 -13 -12 5 -15 -4 -15 -44 0 -47 -28 -130 -107 -311 -17 -40 -18 -48
-6 -73 l14 -28 145 0 144 0 11 27 c9 24 5 42 -27 118 -20 49 -50 121 -66 159
-16 39 -28 87 -28 112 0 32 -4 44 -15 44 -8 0 -15 8 -15 19 0 10 7 24 15 31
19 16 19 54 0 70 -12 10 -21 10 -41 1 -22 -10 -25 -16 -20 -41 5 -26 2 -31
-21 -36 -25 -7 -41 -2 -207 55 -71 25 -126 26 -190 5 -26 -9 -49 -14 -52 -12
-2 3 5 17 17 32 25 32 23 61 -14 156 -20 52 -27 61 -33 45z m24 -297 c15 -15
16 -70 0 -86 -9 -9 -16 -8 -30 5 -20 18 -23 45 -8 74 12 22 21 24 38 7z m-558
-258 l0 -160 -65 0 c-36 0 -65 3 -65 7 0 3 25 64 55 134 30 70 57 139 61 153
3 14 8 26 10 26 2 0 4 -72 4 -160z m40 129 c0 -10 25 -76 55 -146 30 -70 55
-131 55 -135 0 -4 -29 -8 -65 -8 l-65 0 0 161 c0 104 3 158 10 154 6 -3 10
-15 10 -26z m1020 -134 l0 -155 -65 0 c-36 0 -65 1 -65 3 0 1 21 52 46 112 25
61 53 129 62 153 9 23 18 42 19 42 2 0 3 -70 3 -155z m40 139 c0 -16 38 -111
96 -241 l23 -53 -70 0 -69 0 0 155 c0 97 4 155 10 155 6 0 10 -7 10 -16z"/>
<path d="M314 1025 c-20 -51 36 -96 76 -60 22 20 24 33 11 54 -12 19 -81 23
-87 6z"/>
<path d="M434 1001 c12 -19 -15 -62 -46 -76 -29 -13 6 -14 312 -14 298 0 341
2 314 13 -32 14 -44 33 -44 67 0 23 -1 23 -86 3 -37 -8 -76 -14 -88 -12 -14 2
-27 -6 -38 -24 -10 -15 -29 -30 -43 -34 -29 -7 -70 16 -79 44 -5 13 -13 18
-29 15 -12 -3 -53 3 -90 11 -79 18 -90 19 -83 7z"/>
<path d="M360 870 c0 -6 120 -10 340 -10 220 0 340 4 340 10 0 6 -120 10 -340
10 -220 0 -340 -4 -340 -10z"/>
<path d="M362 818 l3 -23 335 0 335 0 3 23 3 22 -341 0 -341 0 3 -22z"/>
<path d="M440 540 c0 -126 3 -230 8 -230 4 0 15 7 25 14 15 12 17 35 17 230
l0 216 -25 0 -25 0 0 -230z"/>
<path d="M537 764 c-4 -4 -7 -97 -7 -206 l0 -199 23 7 c12 3 24 8 26 10 2 2 4
90 5 196 1 187 0 193 -19 196 -12 2 -24 0 -28 -4z"/>
<path d="M630 581 c0 -184 1 -191 20 -191 28 0 31 23 28 210 -3 163 -3 165
-25 168 l-23 3 0 -190z"/>
<path d="M720 590 l0 -180 25 0 25 0 0 180 0 180 -25 0 -25 0 0 -180z"/>
<path d="M810 601 c0 -94 4 -171 8 -171 5 0 15 6 24 13 13 10 17 40 20 167 l3
155 -27 3 -28 3 0 -170z"/>
<path d="M910 630 l0 -142 25 31 c25 28 26 35 23 138 -3 103 -4 108 -25 111
-23 3 -23 3 -23 -138z"/>
<path d="M985 540 c-10 -30 -105 -111 -160 -135 -27 -12 -72 -25 -100 -29 -89
-13 -199 -47 -252 -77 -29 -17 -53 -34 -53 -39 0 -4 -12 -15 -26 -24 l-25 -17
7 35 c3 21 2 36 -3 36 -16 0 -51 -43 -68 -82 -16 -39 -21 -108 -7 -108 4 0 30
15 57 34 62 41 199 107 285 136 36 12 69 26 75 31 5 5 15 9 23 9 32 0 -6 -21
-118 -65 -66 -26 -125 -54 -131 -61 -6 -8 -17 -14 -24 -14 -20 0 -260 -163
-246 -168 6 -2 27 6 47 19 35 21 37 22 88 5 29 -9 82 -16 117 -15 l64 1 -33
14 c-48 21 -39 34 26 34 63 0 122 23 181 69 20 15 61 42 91 59 53 31 54 32 23
32 -46 0 -48 14 -5 33 44 19 126 98 149 142 18 33 43 120 43 148 0 23 -17 22
-25 -3z m-185 -210 c-24 -19 -40 -25 -40 -15 0 5 51 34 60 34 3 0 -6 -8 -20
-19z"/>
</g>
</svg>
